<svg xmlns="http://www.w3.org/2000/svg" width="1800" height="1000" viewBox="0 0 1800 1000" role="img" aria-label="PAXECT Architecture (Brand v13)">
  <defs>
    <style>
      .title { font: 800 38px 'system-ui', 'Inter', 'Segoe UI', Roboto, Arial, sans-serif; fill:#1F2937; }
      .h2 { font: 800 30px 'system-ui', 'Inter', 'Segoe UI', Roboto, Arial, sans-serif; fill:#1F2937; }
      .label { font: 700 18px 'system-ui', 'Inter', 'Segoe UI', Roboto, Arial, sans-serif; fill:#1F2937; }
      .sub { font: 600 18px 'system-ui', 'Inter', 'Segoe UI', Roboto, Arial, sans-serif; fill:#475569; }
      .mono { font: 800 19px 'SFMono-Regular', Menlo, Consolas, 'Liberation Mono', monospace; fill:#1F2937; }
      .pill { font: 700 13px 'system-ui', 'Inter', 'Segoe UI', Roboto, Arial, sans-serif; fill:#1F2937; }
    </style>
    <marker id="arrowSmall" viewBox="0 0 10 10" refX="8" refY="5" markerWidth="7" markerHeight="7" orient="auto" markerUnits="strokeWidth">
      <path d="M 0 0 L 10 5 L 0 10 z" fill="#1F2937" />
    </marker>
    <filter id="shadow" x="-20%" y="-20%" width="140%" height="140%">
      <feDropShadow dx="0" dy="1.2" stdDeviation="1.6" flood-color="#1F2937" flood-opacity="0.15"/>
    </filter>
  </defs>
<text class="title" x="900" y="64" text-anchor="middle">PAXECT ARCHITECTURE</text>
<rect x="1460" y="44" width="76" height="26" rx="13" ry="13" fill="#DCFCE7" stroke="#22C55E" stroke-width="1.5"/>
<text class="pill" x="1498.0" y="58.0" text-anchor="middle">Zero AI</text>
<rect x="80" y="200" width="220" height="72" rx="18" ry="18" fill="#FFF7ED" stroke="#F97316" stroke-width="2" filter="url(#shadow)"/>
<text class="label" x="190.0" y="230" text-anchor="middle">Files</text>
<line x1="300" y1="236.0" x2="360" y2="236.0" stroke="#1F2937" stroke-width="2" marker-end="url(#arrowSmall)"/>
<rect x="80" y="320" width="220" height="72" rx="18" ry="18" fill="#FFF7ED" stroke="#F97316" stroke-width="2" filter="url(#shadow)"/>
<text class="label" x="190.0" y="350" text-anchor="middle">Streams</text>
<line x1="300" y1="356.0" x2="360" y2="356.0" stroke="#1F2937" stroke-width="2" marker-end="url(#arrowSmall)"/>
<rect x="80" y="440" width="220" height="72" rx="18" ry="18" fill="#FFF7ED" stroke="#F97316" stroke-width="2" filter="url(#shadow)"/>
<text class="label" x="190.0" y="470" text-anchor="middle">Telemetry / Logs</text>
<line x1="300" y1="476.0" x2="360" y2="476.0" stroke="#1F2937" stroke-width="2" marker-end="url(#arrowSmall)"/>
<rect x="80" y="560" width="220" height="72" rx="18" ry="18" fill="#FFF7ED" stroke="#F97316" stroke-width="2" filter="url(#shadow)"/>
<text class="label" x="190.0" y="590" text-anchor="middle">Updates</text>
<line x1="300" y1="596.0" x2="360" y2="596.0" stroke="#1F2937" stroke-width="2" marker-end="url(#arrowSmall)"/>
<rect x="360" y="150" width="420" height="560" rx="24" ry="24" fill="#FED7AA" stroke="#F97316" stroke-width="3.2" filter="url(#shadow)"/>
<text class="h2" x="570.0" y="232" text-anchor="middle">PAXECT Core</text>
<text class="mono" x="570.0" y="270" text-anchor="middle">(.freq Container)</text>
<text class="sub" x="570.0" y="310" text-anchor="middle">Multi‑OS / Cross‑Language Ready</text>
<rect x="420.0" y="346" width="76" height="26" rx="13" ry="13" fill="#FFEDD5" stroke="#F97316" stroke-width="1.5"/>
<text class="pill" x="458.0" y="360.0" text-anchor="middle">Windows</text>
<rect x="506.0" y="346" width="70" height="26" rx="13" ry="13" fill="#FFEDD5" stroke="#F97316" stroke-width="1.5"/>
<text class="pill" x="541.0" y="360.0" text-anchor="middle">Linux</text>
<rect x="586.0" y="346" width="70" height="26" rx="13" ry="13" fill="#FFEDD5" stroke="#F97316" stroke-width="1.5"/>
<text class="pill" x="621.0" y="360.0" text-anchor="middle">macOS</text>
<rect x="790" y="194.0" width="300" height="84" rx="18" ry="18" fill="#FFF7ED" stroke="#F97316" stroke-width="2" filter="url(#shadow)"/>
<text class="label" x="940.0" y="224.0" text-anchor="middle">AES Secure</text>
<text class="sub" x="940.0" y="250.0" text-anchor="middle">Encryption</text>
<line x1="780" y1="236.0" x2="790" y2="236.0" stroke="#1F2937" stroke-width="2" marker-end="url(#arrowSmall)"/>
<rect x="790" y="314.0" width="300" height="84" rx="18" ry="18" fill="#FFF7ED" stroke="#F97316" stroke-width="2" filter="url(#shadow)"/>
<text class="label" x="940.0" y="344.0" text-anchor="middle">Polyglot</text>
<text class="sub" x="940.0" y="370.0" text-anchor="middle">Language Bindings</text>
<line x1="780" y1="356.0" x2="790" y2="356.0" stroke="#1F2937" stroke-width="2" marker-end="url(#arrowSmall)"/>
<rect x="790" y="434.0" width="300" height="84" rx="18" ry="18" fill="#FFF7ED" stroke="#F97316" stroke-width="2" filter="url(#shadow)"/>
<text class="label" x="940.0" y="464.0" text-anchor="middle">SelfTune 5‑in‑1</text>
<text class="sub" x="940.0" y="490.0" text-anchor="middle">Performance</text>
<line x1="780" y1="476.0" x2="790" y2="476.0" stroke="#1F2937" stroke-width="2" marker-end="url(#arrowSmall)"/>
<rect x="790" y="554.0" width="300" height="84" rx="18" ry="18" fill="#FFF7ED" stroke="#F97316" stroke-width="2" filter="url(#shadow)"/>
<text class="label" x="940.0" y="584.0" text-anchor="middle">Link</text>
<text class="sub" x="940.0" y="610.0" text-anchor="middle">Inbox/Outbox Bridge</text>
<line x1="780" y1="596.0" x2="790" y2="596.0" stroke="#1F2937" stroke-width="2" marker-end="url(#arrowSmall)"/>
<rect x="806" y="408.0" width="70" height="26" rx="13" ry="13" fill="#FFEDD5" stroke="#F97316" stroke-width="1.5"/>
<text class="pill" x="841.0" y="422.0" text-anchor="middle">Python</text>
<rect x="896" y="408.0" width="70" height="26" rx="13" ry="13" fill="#FFEDD5" stroke="#F97316" stroke-width="1.5"/>
<text class="pill" x="931.0" y="422.0" text-anchor="middle">JS</text>
<rect x="958" y="408.0" width="70" height="26" rx="13" ry="13" fill="#FFEDD5" stroke="#F97316" stroke-width="1.5"/>
<text class="pill" x="993.0" y="422.0" text-anchor="middle">Go</text>
<rect x="1130" y="199.0" width="300" height="74" rx="18" ry="18" fill="#FFEDD5" stroke="#F97316" stroke-width="2" filter="url(#shadow)"/>
<text class="label" x="1280.0" y="229.0" text-anchor="middle">Containers (.freq)</text>
<text class="sub" x="1280.0" y="255.0" text-anchor="middle">via AES / Core</text>
<line x1="1090" y1="236.0" x2="1130" y2="236.0" stroke="#1F2937" stroke-width="2" marker-end="url(#arrowSmall)"/>
<rect x="1130" y="319.0" width="300" height="74" rx="18" ry="18" fill="#FFEDD5" stroke="#F97316" stroke-width="2" filter="url(#shadow)"/>
<text class="label" x="1280.0" y="349.0" text-anchor="middle">Applications</text>
<text class="sub" x="1280.0" y="375.0" text-anchor="middle">via Polyglot</text>
<line x1="1090" y1="356.0" x2="1130" y2="356.0" stroke="#1F2937" stroke-width="2" marker-end="url(#arrowSmall)"/>
<rect x="1130" y="439.0" width="300" height="74" rx="18" ry="18" fill="#FFEDD5" stroke="#F97316" stroke-width="2" filter="url(#shadow)"/>
<text class="label" x="1280.0" y="469.0" text-anchor="middle">Logs / Monitoring</text>
<text class="sub" x="1280.0" y="495.0" text-anchor="middle">via SelfTune</text>
<line x1="1090" y1="476.0" x2="1130" y2="476.0" stroke="#1F2937" stroke-width="2" marker-end="url(#arrowSmall)"/>
<rect x="1130" y="559.0" width="300" height="74" rx="18" ry="18" fill="#FFEDD5" stroke="#F97316" stroke-width="2" filter="url(#shadow)"/>
<text class="label" x="1280.0" y="589.0" text-anchor="middle">Cross‑OS / Network Links</text>
<text class="sub" x="1280.0" y="615.0" text-anchor="middle">via Link</text>
<rect x="1470" y="559.0" width="300" height="74" rx="18" ry="18" fill="#FFEDD5" stroke="#F97316" stroke-width="2" filter="url(#shadow)"/>
<text class="label" x="1620.0" y="589.0" text-anchor="middle">Files (Decode)</text>
<text class="sub" x="1620.0" y="615.0" text-anchor="middle">via Link → Core</text>
<line x1="1090" y1="596.0" x2="1110" y2="596.0" stroke="#1F2937" stroke-width="2" marker-end="url(#arrowSmall)"/>
<circle cx="1110" cy="596.0" r="3.2" fill="#1F2937"/>
<line x1="1110" y1="596.0" x2="1130" y2="596.0" stroke="#1F2937" stroke-width="2" marker-end="url(#arrowSmall)"/>
<line x1="1110" y1="596.0" x2="1470" y2="596.0" stroke="#1F2937" stroke-width="2" marker-end="url(#arrowSmall)"/>
<text class="title" x="900" y="960" text-anchor="middle">PAXECT: Deterministic • Link‑Based • Production‑Ready</text>
</svg>