<svg xmlns="http://www.w3.org/2000/svg" width="1600" height="980" viewBox="0 0 1600 980" role="img" aria-label="PAXECT Architecture (Brand v6)">
  <defs>
    <style>
      .title { font: 800 40px 'Inter', 'Segoe UI', Roboto, Arial, sans-serif; fill:#1F2937; }
      .h2 { font: 800 30px 'Inter', 'Segoe UI', Roboto, Arial, sans-serif; fill:#1F2937; }
      .label { font: 700 18px 'Inter', 'Segoe UI', Roboto, Arial, sans-serif; fill:#1F2937; }
      .sub { font: 600 19px 'Inter', 'Segoe UI', Roboto, Arial, sans-serif; fill:#475569; }
      .mono { font: 800 20px 'SFMono-Regular', Menlo, Consolas, 'Liberation Mono', monospace; fill:#1F2937; }
      .note { font: 600 14px 'Inter', 'Segoe UI', Roboto, Arial, sans-serif; fill:#475569; }
      .pill { font: 700 13px 'Inter', 'Segoe UI', Roboto, Arial, sans-serif; fill:#1F2937; }
    </style>
    <marker id="arrow" viewBox="0 0 10 10" refX="8.5" refY="5" markerWidth="10" markerHeight="10" orient="auto">
      <path d="M 0 0 L 10 5 L 0 10 z" fill="#1F2937" />
    </marker>
    <filter id="shadow" x="-20%" y="-20%" width="140%" height="140%">
      <feDropShadow dx="0" dy="1.3" stdDeviation="2" flood-color="#1F2937" flood-opacity="0.15"/>
    </filter>
    <symbol id="cloud" viewBox="0 0 64 40">
      <path d="M20 32h26a10 10 0 0 0 0-20c-.7 0-1.4.07-2.06.2A12 12 0 0 0 14 16c0 .34.02.67.05 1A10 10 0 0 0 20 32Z" fill="#FFEDD5" stroke="#F97316" stroke-width="2"/>
    </symbol>
  </defs>
<text class="title" x="800" y="64" text-anchor="middle">PAXECT ARCHITECTURE</text>
<rect x="1320" y="44" width="76" height="26" rx="13" ry="13" fill="#DCFCE7" stroke="#22C55E" stroke-width="1.5"/>
<text class="pill" x="1358.0" y="58.0" text-anchor="middle">Zero AI</text>
<rect x="80" y="190" width="220" height="72" rx="18" ry="18" fill="#FFF7ED" stroke="#F97316" stroke-width="2" filter="url(#shadow)"/>
<text class="label" x="190.0" y="220" text-anchor="middle">Files</text>
<line x1="300" y1="226.0" x2="360" y2="226.0" stroke="#1F2937" stroke-width="2" marker-end="url(#arrow)"/>
<rect x="80" y="305" width="220" height="72" rx="18" ry="18" fill="#FFF7ED" stroke="#F97316" stroke-width="2" filter="url(#shadow)"/>
<text class="label" x="190.0" y="335" text-anchor="middle">Streams</text>
<line x1="300" y1="341.0" x2="360" y2="341.0" stroke="#1F2937" stroke-width="2" marker-end="url(#arrow)"/>
<rect x="80" y="420" width="220" height="72" rx="18" ry="18" fill="#FFF7ED" stroke="#F97316" stroke-width="2" filter="url(#shadow)"/>
<text class="label" x="190.0" y="450" text-anchor="middle">Telemetry / Logs</text>
<line x1="300" y1="456.0" x2="360" y2="456.0" stroke="#1F2937" stroke-width="2" marker-end="url(#arrow)"/>
<rect x="80" y="535" width="220" height="72" rx="18" ry="18" fill="#FFF7ED" stroke="#F97316" stroke-width="2" filter="url(#shadow)"/>
<text class="label" x="190.0" y="565" text-anchor="middle">Updates</text>
<line x1="300" y1="571.0" x2="360" y2="571.0" stroke="#1F2937" stroke-width="2" marker-end="url(#arrow)"/>
<rect x="360" y="150" width="400" height="540" rx="24" ry="24" fill="#FED7AA" stroke="#F97316" stroke-width="3.2" filter="url(#shadow)"/>
<text class="h2" x="560.0" y="230" text-anchor="middle">PAXECT Core</text>
<text class="mono" x="560.0" y="266" text-anchor="middle">(.freq Container)</text>
<text class="sub" x="560.0" y="304" text-anchor="middle">Multi‑OS / Cross‑Language Ready</text>
<rect x="410.0" y="338" width="76" height="26" rx="13" ry="13" fill="#FFEDD5" stroke="#F97316" stroke-width="1.5"/>
<text class="pill" x="448.0" y="352.0" text-anchor="middle">Windows</text>
<rect x="496.0" y="338" width="70" height="26" rx="13" ry="13" fill="#FFEDD5" stroke="#F97316" stroke-width="1.5"/>
<text class="pill" x="531.0" y="352.0" text-anchor="middle">Linux</text>
<rect x="576.0" y="338" width="70" height="26" rx="13" ry="13" fill="#FFEDD5" stroke="#F97316" stroke-width="1.5"/>
<text class="pill" x="611.0" y="352.0" text-anchor="middle">macOS</text>
<rect x="800" y="184.0" width="280" height="84" rx="18" ry="18" fill="#FFF7ED" stroke="#F97316" stroke-width="2" filter="url(#shadow)"/>
<text class="label" x="940.0" y="214.0" text-anchor="middle">AES Secure</text>
<text class="sub" x="940.0" y="240.0" text-anchor="middle">Encryption</text>
<line x1="760" y1="226.0" x2="800" y2="226.0" stroke="#1F2937" stroke-width="2" marker-end="url(#arrow)"/>
<rect x="800" y="299.0" width="280" height="84" rx="18" ry="18" fill="#FFF7ED" stroke="#F97316" stroke-width="2" filter="url(#shadow)"/>
<text class="label" x="940.0" y="329.0" text-anchor="middle">Polyglot</text>
<text class="sub" x="940.0" y="355.0" text-anchor="middle">Language Bindings</text>
<line x1="760" y1="341.0" x2="800" y2="341.0" stroke="#1F2937" stroke-width="2" marker-end="url(#arrow)"/>
<rect x="800" y="414.0" width="280" height="84" rx="18" ry="18" fill="#FFF7ED" stroke="#F97316" stroke-width="2" filter="url(#shadow)"/>
<text class="label" x="940.0" y="444.0" text-anchor="middle">SelfTune 5‑in‑1</text>
<text class="sub" x="940.0" y="470.0" text-anchor="middle">Performance</text>
<line x1="760" y1="456.0" x2="800" y2="456.0" stroke="#1F2937" stroke-width="2" marker-end="url(#arrow)"/>
<rect x="800" y="529.0" width="280" height="84" rx="18" ry="18" fill="#FFF7ED" stroke="#F97316" stroke-width="2" filter="url(#shadow)"/>
<text class="label" x="940.0" y="559.0" text-anchor="middle">Link</text>
<text class="sub" x="940.0" y="585.0" text-anchor="middle">Inbox/Outbox Bridge</text>
<line x1="760" y1="571.0" x2="800" y2="571.0" stroke="#1F2937" stroke-width="2" marker-end="url(#arrow)"/>
<rect x="816" y="393.0" width="70" height="26" rx="13" ry="13" fill="#FFEDD5" stroke="#F97316" stroke-width="1.5"/>
<text class="pill" x="851.0" y="407.0" text-anchor="middle">Python</text>
<rect x="906" y="393.0" width="70" height="26" rx="13" ry="13" fill="#FFEDD5" stroke="#F97316" stroke-width="1.5"/>
<text class="pill" x="941.0" y="407.0" text-anchor="middle">JS</text>
<rect x="968" y="393.0" width="70" height="26" rx="13" ry="13" fill="#FFEDD5" stroke="#F97316" stroke-width="1.5"/>
<text class="pill" x="1003.0" y="407.0" text-anchor="middle">Go</text>
<rect x="1180" y="189.0" width="330" height="74" rx="18" ry="18" fill="#FFEDD5" stroke="#F97316" stroke-width="2" filter="url(#shadow)"/>
<text class="label" x="1345.0" y="219.0" text-anchor="middle">Containers (.freq)</text>
<text class="sub" x="1345.0" y="245.0" text-anchor="middle">via AES / Core</text>
<line x1="1080" y1="226.0" x2="1180" y2="226.0" stroke="#1F2937" stroke-width="2" marker-end="url(#arrow)"/>
<rect x="1180" y="304.0" width="330" height="74" rx="18" ry="18" fill="#FFEDD5" stroke="#F97316" stroke-width="2" filter="url(#shadow)"/>
<text class="label" x="1345.0" y="334.0" text-anchor="middle">Applications</text>
<text class="sub" x="1345.0" y="360.0" text-anchor="middle">via Polyglot</text>
<line x1="1080" y1="341.0" x2="1180" y2="341.0" stroke="#1F2937" stroke-width="2" marker-end="url(#arrow)"/>
<rect x="1180" y="419.0" width="330" height="74" rx="18" ry="18" fill="#FFEDD5" stroke="#F97316" stroke-width="2" filter="url(#shadow)"/>
<text class="label" x="1345.0" y="449.0" text-anchor="middle">Logs / Monitoring</text>
<text class="sub" x="1345.0" y="475.0" text-anchor="middle">via SelfTune</text>
<line x1="1080" y1="456.0" x2="1180" y2="456.0" stroke="#1F2937" stroke-width="2" marker-end="url(#arrow)"/>
<rect x="1180" y="534.0" width="330" height="74" rx="18" ry="18" fill="#FFEDD5" stroke="#F97316" stroke-width="2" filter="url(#shadow)"/>
<text class="label" x="1345.0" y="564.0" text-anchor="middle">Cross‑OS / Network Links</text>
<text class="sub" x="1345.0" y="590.0" text-anchor="middle">via Link</text>
<line x1="1080" y1="571.0" x2="1180" y2="571.0" stroke="#1F2937" stroke-width="2" marker-end="url(#arrow)"/>
<rect x="1180" y="629.0" width="330" height="74" rx="18" ry="18" fill="#FFEDD5" stroke="#F97316" stroke-width="2" filter="url(#shadow)"/>
<text class="label" x="1345.0" y="659.0" text-anchor="middle">Files (Decode)</text>
<text class="sub" x="1345.0" y="685.0" text-anchor="middle">via Link → Core</text>
<path d="M 1080 571.0 H 1240 V 666.0 H 1180" fill="none" stroke="#1F2937" stroke-width="2" marker-end="url(#arrow)" />
<text class="note" x="1248" y="610.5" text-anchor="start">decode</text>
<use href="#cloud" x="1532" y="547.0" width="48" height="48"/>
<rect x="800" y="701.0" width="280" height="70" rx="18" ry="18" fill="#FFFDF8" stroke="#FB923C" stroke-width="2" filter="url(#shadow)" stroke-dasharray="7 7"/>
<text class="label" x="940.0" y="731.0" text-anchor="middle">More Plugins…</text>
<text class="sub" x="940.0" y="757.0" text-anchor="middle">+</text>
<text class="title" x="800" y="940" text-anchor="middle">PAXECT Brand • Link‑Driven Decode • Production‑Ready</text>
</svg>